<!-- icon666.com - MILLIONS vector ICONS FREE --><svg id="Layer_1" enable-background="new 0 0 48 48" viewBox="0 0 48 48" xmlns="http://www.w3.org/2000/svg"><path d="m42 17h-1-8v-1-2c0-2.76-2.24-5-5-5h-8c-2.76 0-5 2.24-5 5v2 1h-8-1c-.55 0-1 .45-1 1s.45 1 1 1h.14l2.87 19.15c.07.49.49.85.99.85h28c.5 0 .92-.36.99-.85l2.87-19.15h.14c.55 0 1-.45 1-1s-.45-1-1-1zm-31 20h-.14l-.3-2h.44zm0-4h-.74l-.3-2h1.04zm0-4h-1.34l-.3-2h1.64zm0-4h-1.94l-.3-2h2.24zm0-4h-2.54l-.3-2h2.84zm4 16h-2v-2h2zm0-4h-2v-2h2zm0-4h-2v-2h2zm0-4h-2v-2h2zm0-4h-2v-2h2zm4 16h-2v-2h2zm0-4h-2v-2h2zm0-4h-2v-2h2zm0-4h-2v-2h2zm0-4h-2v-2h2zm4 16h-2v-2h2zm0-4h-2v-2h2zm0-4h-2v-2h2zm0-4h-2v-2h2zm0-4h-2v-2h2zm4 16h-2v-2h2zm0-4h-2v-2h2zm0-4h-2v-2h2zm0-4h-2v-2h2zm0-4h-2v-2h2zm4 16h-2v-2h2zm0-4h-2v-2h2zm0-4h-2v-2h2zm0-4h-2v-2h2zm0-4h-2v-2h2zm0-5v1h-14v-1-2c0-1.65 1.35-3 3-3h8c1.65 0 3 1.35 3 3zm4 21h-2v-2h2zm0-4h-2v-2h2zm0-4h-2v-2h2zm0-4h-2v-2h2zm0-4h-2v-2h2zm2.14 16h-.14v-2h.44zm.6-4h-.74v-2h1.04zm.6-4h-1.34v-2h1.64zm.6-4h-1.94v-2h2.24zm.6-4h-2.54v-2h2.84z"></path></svg>