<!-- icon666.com - MILLIONS vector ICONS FREE --><svg id="Capa_1" enable-background="new 0 0 464.5 464.5" viewBox="0 0 464.5 464.5" xmlns="http://www.w3.org/2000/svg"><g id="XMLID_1_"><g><path d="m442 61.683v340.634c-.009 21.914-17.769 39.674-39.683 39.683h-340.634c-21.905-.018-39.665-17.778-39.683-39.683v-340.634c.009-21.914 17.769-39.674 39.683-39.683h340.634c21.914.009 39.674 17.769 39.683 39.683zm-14.483 340.634v-340.634c-.009-13.912-11.288-25.191-25.2-25.2h-340.634c-13.912.009-25.191 11.288-25.2 25.2v340.634c.009 13.913 11.288 25.191 25.2 25.2h340.634c13.913-.009 25.191-11.287 25.2-25.2z"></path><path d="m362.345 137.862c4.001 0 7.241 3.241 7.241 7.241 0 4.001-3.241 7.241-7.241 7.241h-173.793c-4.001 0-7.241-3.241-7.241-7.241 0-4.001 3.241-7.241 7.241-7.241z"></path><path d="m362.345 195.793c4.001 0 7.241 3.241 7.241 7.241 0 4.001-3.241 7.241-7.241 7.241h-173.793c-4.001 0-7.241-3.241-7.241-7.241 0-4.001 3.241-7.241 7.241-7.241z"></path><path d="m362.345 253.724c4.001 0 7.241 3.24 7.241 7.241s-3.241 7.241-7.241 7.241h-173.793c-4.001 0-7.241-3.241-7.241-7.241s3.241-7.241 7.241-7.241z"></path><path d="m362.345 311.655c4.001 0 7.241 3.241 7.241 7.241 0 4.001-3.241 7.241-7.241 7.241h-173.793c-4.001 0-7.241-3.241-7.241-7.241 0-4.001 3.241-7.241 7.241-7.241z"></path><path d="m145.103 137.862c4.001 0 7.241 3.241 7.241 7.241 0 4.001-3.241 7.241-7.241 7.241h-43.448c-4.001 0-7.241-3.241-7.241-7.241 0-4.001 3.241-7.241 7.241-7.241z"></path><path d="m145.103 195.793c4.001 0 7.241 3.241 7.241 7.241 0 4.001-3.241 7.241-7.241 7.241h-43.448c-4.001 0-7.241-3.241-7.241-7.241 0-4.001 3.241-7.241 7.241-7.241z"></path><path d="m145.103 253.724c4.001 0 7.241 3.24 7.241 7.241s-3.241 7.241-7.241 7.241h-43.448c-4.001 0-7.241-3.241-7.241-7.241s3.241-7.241 7.241-7.241z"></path><path d="m145.103 311.655c4.001 0 7.241 3.241 7.241 7.241 0 4.001-3.241 7.241-7.241 7.241h-43.448c-4.001 0-7.241-3.241-7.241-7.241 0-4.001 3.241-7.241 7.241-7.241z"></path></g></g></svg>