<!-- icon666.com - MILLIONS vector ICONS FREE --><svg id="Layer_1" enable-background="new 0 0 105 105" viewBox="0 0 105 105" xmlns="http://www.w3.org/2000/svg"><g><g><path d="m93.9604492 100.8647461h-1.8834229c1.6464844-1.4560547 2.6920166-3.5771484 2.6920166-5.9423828v-39.0673828c0-.5527344-.4472656-1-1-1s-1 .4472656-1 1v39.0673828c0 3.2753906-2.6650391 5.9404297-5.9404297 5.9404297h-50.5166015c1.640625-1.4560547 2.6767387-3.5791016 2.6767387-5.9404297v-.2353516-8.7695313-.7431641c0-.5527344-.4472466-1-1-1-.5527153 0-1 .4472656-1 1v.7431641 8.7695313c0 2.7004395-1.6665459 5.0314941-4.0220757 5.8520508-.0365601.0126953-.0715942.0280762-.1084595.0397949-.2977295.0969238-.6079712.1643066-.9249878.2106934-.0680542.0102539-.1351929.0234375-.2040405.03125-.0936279.0107422-.1865845.0153809-.2797241.0217285-.1185913.0080566-.2368164.017334-.3571777.0180664-1.4660645.0144043-2.8527222-.498291-3.9667969-1.479248-1.28125-1.1289063-2.0166016-2.7548828-2.0166016-4.4589844v-16.6201172c0-1.1025391.8974609-2 2-2h9.8798637v4.9492188c0 .5527344.4472847 1 1 1 .5527534 0 1-.4472656 1-1v-2.3168945c.0000801-.0041504.0025215-.0078125.0025215-.012207v-40.7402345h2.4099731c.7774048 0 1.4849854-.2983398 2.0340576-.7753906h26.0192871c.5527344 0 1-.4472656 1-1s-.4472656-1-1-1h-24.9940793l.0007324-.0043945 1.3200073-9.6101074h44.9899902c1.1000366 0 2 .9001465 2 2v23.8400879c0 .5600586.4500122 1 1 1 .5500488 0 1-.4399414 1-1v-23.840088c0-2.2099609-1.7999878-4-4-4h-44.7099609l.5599976-4.0600586c1.0999756-.119873 1.960022-1.0500488 1.960022-2.1799316v-2.75c0-1.2099609-.9900513-2.1999512-2.2000122-2.1999512h-6.3342896l-3.6326294-5.7084961c.387207-.5002441.6271362-1.1196289.6271362-1.7995605 0-1.6318359-1.3271484-2.9589844-2.9580078-2.9589844-1.6318359 0-2.9589844 1.3271484-2.9589844 2.9589844 0 1.6308594 1.3271484 2.9580078 2.9589844 2.9580078.2232666 0 .4389038-.029541.6481934-.0766602l2.9442139 4.626709h-16.5419923l2.9448853-4.626709c.2092896.0471191.4249268.0766602.6482544.0766602 1.6308594 0 2.9580078-1.3271484 2.9580078-2.9580078 0-1.6318359-1.3271484-2.9589844-2.9580078-2.9589844s-2.9580078 1.3271484-2.9580078 2.9589844c0 .6799316.2399292 1.2993164.6271362 1.7993164l-3.6335449 5.7087402h-6.3413696c-1.210022 0-2.1900024.9899902-2.1900024 2.1999512v2.75c0 1.1699219.9100342 2.1201172 2.0599976 2.1799316l2.1799927 15.7900391c.210022 1.5100098 1.5200195 2.6599121 3.0499878 2.6599121h19.4700316v36.1201172h-9.8823853c-2.2060547 0-4 1.7939453-4 4v16.6201172c0 2.2700195.9761353 4.4343262 2.6773682 5.9423828h-15.4615479c-.5527344 0-1 .4472656-1 1s.4472656 1 1 1h83.6357422c.5527344 0 1-.4472656 1-1s-.4472656-1-1-1zm-59.8769531-94.8125c-.5283203 0-.9589844-.4296875-.9589844-.9580078s.4306641-.9589844.9589844-.9589844.9580078.4306641.9580078.9589844-.4296875.9580078-.9580078.9580078zm-9.3564453-1.9169922c.5283203 0 .9580078.4306641.9580078.9589844s-.4296875.9580078-.9580078.9580078-.9580078-.4296875-.9580078-.9580078.4296875-.9589844.9580078-.9589844zm-12.3057862 13.6069336c-.0999756 0-.1900024-.0800781-.1900024-.1899414v-2.75c0-.1098633.0900269-.1999512.1900024-.1999512h33.960022c.1099854 0 .2000122.0900879.2000122.1999512v2.75c0 .1098633-.0900269.1899414-.2000122.1899414h-.6300049c-9.3720093 0-23.2481689 0-32.5900269 0zm5.0999756 18.4399414c-.539978 0-1-.3999023-1.0699463-.9299316l-2.1400146-15.5100098h30.289978l-.5599976 4.0500488-.2700195 2-1.3099976 9.4599609c-.0699463.5300293-.5299683.9299316-1.0599976.9299316h-2.409973-2-19.4700318z"></path><path d="m6.1469727 100.8647461h-1.6132813c-.5527344 0-1 .4472656-1 1s.4472656 1 1 1h1.6132813c.5527344 0 1-.4472656 1-1s-.4472657-1-1-1z"></path><path d="m100.4663086 100.8647461h-2.5791016c-.5527344 0-1 .4472656-1 1s.4472656 1 1 1h2.5791016c.5527344 0 1-.4472656 1-1s-.4472656-1-1-1z"></path><path d="m89.9112549 31.6123047c0-.5500488-.4500122-1-1-1h-12.4199829c-.5499878 0-1 .4499512-1 1v9.5898438c0 .5500488.4500122 1 1 1h12.4199829c.5499878 0 1-.4499512 1-1zm-2 8.5898437h-10.4199829v-7.5898438h10.4199829z"></path><path d="m69.4545898 52.1889648h-26.25c-.5527344 0-1 .4472656-1 1s.4472656 1 1 1h26.25c.5527344 0 1-.4472656 1-1s-.4472656-1-1-1z"></path><path d="m89.9112549 48.3920898c0-.5498047-.4500122-1-1-1h-12.4199829c-.5499878 0-1 .4501953-1 1v9.5900879c0 .5500488.4500122 1 1 1h12.4199829c.5499878 0 1-.4499512 1-1zm-2 8.5900879h-10.4199829v-7.5900879h10.4199829z"></path><path d="m69.4545898 68.9702148h-26.25c-.5527344 0-1 .4472656-1 1s.4472656 1 1 1h26.25c.5527344 0 1-.4472656 1-1s-.4472656-1-1-1z"></path><path d="m89.9112549 65.1821289c0-.5598145-.4500122-1-1-1h-12.4199829c-.5499878 0-1 .4401855-1 1v9.5800781c0 .5500488.4500122 1 1 1h12.4199829c.5499878 0 1-.4499512 1-1zm-2 8.5800781h-10.4199829v-7.5800781h10.4199829z"></path><path d="m69.4545898 85.7514648h-26.25c-.5527344 0-1 .4472656-1 1s.4472656 1 1 1h26.25c.5527344 0 1-.4472656 1-1s-.4472656-1-1-1z"></path><path d="m88.9112549 80.9621582h-12.4199829c-.5499878 0-1 .4499512-1 1v9.5800781c0 .5500488.4500122 1 1 1h12.4199829c.5499878 0 1-.4499512 1-1v-9.5800781c0-.5500488-.4500122-1-1-1zm-1 9.5800781h-10.4199829v-7.5800781h10.4199829z"></path><path d="m81.1323242 38.8217773c.1953125.1953125.4511719.2929688.7070313.2929688s.5117188-.0976563.7070313-.2929688l3.4375-3.4375c.390625-.390625.390625-1.0234375 0-1.4140625s-1.0234375-.390625-1.4140625 0l-2.7304688 2.7304688-1.0009766-1.0009766c-.390625-.390625-1.0234375-.390625-1.4140625 0s-.390625 1.0234375 0 1.4140625z"></path><path d="m81.1323242 55.6147461c.1875.1875.4414063.2929688.7070313.2929688s.5195313-.1054688.7070313-.2929688l3.4375-3.4375c.390625-.390625.390625-1.0234375 0-1.4140625s-1.0234375-.390625-1.4140625 0l-2.7304688 2.7304688-1.0009766-1.0019531c-.390625-.390625-1.0234375-.390625-1.4140625 0-.390625.3896484-.390625 1.0234375 0 1.4140625z"></path><path d="m81.1323242 72.3959961c.1953125.1953125.4511719.2929688.7070313.2929688s.5117188-.0976563.7070313-.2929688l3.4375-3.4375c.390625-.390625.390625-1.0234375 0-1.4140625s-1.0234375-.390625-1.4140625 0l-2.7304688 2.7304688-1.0009766-1.0009766c-.390625-.390625-1.0234375-.390625-1.4140625 0s-.390625 1.0234375 0 1.4140625z"></path><path d="m23.0912476 23.5522461c-.5599976 0-1 .4499512-1 1v6.8200684c0 .5500488.4400024 1 1 1 .5500488 0 1-.4499512 1-1v-6.8200684c0-.5500488-.4499512-1-1-1z"></path><path d="m29.4612427 23.5522461c-.5599976 0-1 .4499512-1 1v6.8200684c0 .5500488.4400024 1 1 1 .5500488 0 1-.4499512 1-1v-6.8200684c0-.5500488-.4499512-1-1-1z"></path><path d="m35.8312988 23.5522461c-.5500488 0-1 .4499512-1 1v6.8200684c0 .5500488.4499512 1 1 1 .5499878 0 1-.4499512 1-1v-6.8200684c0-.5500488-.4500122-1-1-1z"></path></g></g></svg>